<svg width="573" height="712" viewBox="0 0 573 712" fill="none" xmlns="http://www.w3.org/2000/svg">
<path d="M498.773 262C488.85 175.865 446.425 107.318 379.831 85.1841C273.177 49.7362 144.919 146.759 93.3587 301.892C41.7981 457.024 86.4597 611.52 193.113 646.968C299.766 682.415 428.024 585.392 479.585 430.26C485.844 411.427 490.686 392.603 494.17 374" stroke="#E787FC" stroke-width="4"/>
<path d="M498.773 262L509.315 235.126L480.771 239.434L498.773 262ZM496.628 374.46C496.882 373.103 495.988 371.797 494.631 371.543C493.273 371.289 491.967 372.183 491.713 373.54L496.628 374.46ZM477.212 429.471C451.571 506.62 406.889 569.213 355.5 608.088C304.101 646.97 246.222 661.985 193.902 644.595L192.325 649.34C246.657 667.398 306.234 651.626 358.517 612.075C410.811 572.517 456.038 509.033 481.957 431.048L477.212 429.471ZM193.902 644.595C141.581 627.206 104.205 580.531 86.3073 518.617C68.4129 456.715 70.0898 379.828 95.7311 302.68L90.9863 301.103C65.0671 379.087 63.2945 457.014 81.504 520.006C99.7098 582.984 137.992 631.282 192.325 649.34L193.902 644.595ZM95.7311 302.68C121.372 225.532 166.054 162.938 217.443 124.064C268.843 85.1819 326.721 70.167 379.042 87.5565L380.619 82.8117C326.286 64.7534 266.709 80.5261 214.427 120.077C162.133 159.635 116.906 223.119 90.9863 301.103L95.7311 302.68ZM379.042 87.5565C438.639 107.365 478.864 165.198 492.959 240.214L497.873 239.29C483.574 163.188 442.524 103.387 380.619 82.8117L379.042 87.5565ZM491.713 373.54C488.249 392.031 483.436 410.745 477.212 429.471L481.957 431.048C488.252 412.108 493.122 393.175 496.628 374.46L491.713 373.54Z" fill="#E787FC"/>
<path d="M490.302 460.26C458.073 557.231 395.874 631.497 327.718 664.896" stroke="#E787FC" stroke-width="4" stroke-linecap="round"/>
<path d="M64.6926 297.79C119.355 133.325 255.329 30.465 368.398 68.0454C408.481 81.3674 440.304 110.55 462.252 150" stroke="#E787FC" stroke-width="4" stroke-linecap="round"/>
<path d="M246 365H333.5" stroke="#E787FC" stroke-width="4" stroke-linecap="round" stroke-linejoin="round"/>
<path d="M237 274C237.4 274.8 288.833 363.667 314.5 408" stroke="#E787FC" stroke-width="4" stroke-linecap="round" stroke-linejoin="round"/>
<path d="M198 312L322.5 384.5" stroke="#E787FC" stroke-width="4" stroke-linecap="round" stroke-linejoin="round"/>
<path d="M343.5 274C343.1 274.8 291.667 363.667 266 408" stroke="#E787FC" stroke-width="4" stroke-linecap="round" stroke-linejoin="round"/>
<path d="M382.5 312L258 384.5" stroke="#E787FC" stroke-width="4" stroke-linecap="round" stroke-linejoin="round"/>
<path d="M290 260V471.5" stroke="#E787FC" stroke-width="4" stroke-linecap="round" stroke-linejoin="round"/>
</svg>
